<svg width="25" height="24" viewBox="0 0 25 24" fill="none" xmlns="http://www.w3.org/2000/svg">
    <path d="M20.1641 17.5861C19.8874 18.2653 19.5454 18.913 19.1436 19.5191C18.6068 20.3262 18.166 20.8839 17.8282 21.1943C17.3034 21.7015 16.7396 21.9624 16.1369 21.9772C15.7051 21.9772 15.1833 21.8477 14.5756 21.5847C13.9659 21.3227 13.4061 21.1943 12.8933 21.1943C12.3566 21.1943 11.7808 21.3227 11.1641 21.5847C10.5484 21.8477 10.0506 21.9856 9.66974 21.9982C9.09299 22.0245 8.51624 21.7572 7.94149 21.1943C7.57465 20.8576 7.11586 20.2788 6.5651 19.4602C5.97535 18.5878 5.49057 17.5724 5.11073 16.4181C4.70391 15.169 4.5 13.961 4.5 12.7909C4.5 11.4514 4.77488 10.295 5.32564 9.32688C5.7422 8.56658 6.33774 7.93203 7.05488 7.48436C7.76204 7.03786 8.56931 6.79744 9.39386 6.78777C9.85366 6.78777 10.4564 6.93719 11.2031 7.23182C11.9497 7.52646 12.4295 7.67588 12.6384 7.67588C12.7964 7.67588 13.3271 7.50015 14.2307 7.15185C15.0834 6.82881 15.8031 6.69517 16.3928 6.74778C17.9921 6.88352 19.1926 7.54645 19.9912 8.74182C18.5618 9.65413 17.8552 10.9305 17.8692 12.5689C17.8811 13.8453 18.322 14.907 19.1856 15.7499C19.5674 16.1345 20.0129 16.4423 20.5 16.658C20.394 16.981 20.2821 17.2893 20.1641 17.5861ZM16.4987 2.40089C16.4987 3.40054 16.1509 4.33495 15.4602 5.19885C14.6246 6.22586 13.615 6.82039 12.5205 6.72674C12.5062 6.60103 12.4992 6.47453 12.4995 6.34792C12.4995 5.38721 12.8953 4.3602 13.602 3.51944C13.9539 3.09433 14.4017 2.73972 14.9444 2.45771C15.4862 2.17991 15.998 2.02628 16.4798 1.99998C16.4928 2.13467 16.4987 2.2683 16.4987 2.40089Z" fill="#383A3A"/>
</svg>
