<svg width="181" height="139" viewBox="0 0 181 139" fill="none" xmlns="http://www.w3.org/2000/svg">
    <path d="M168.247 50.5154C175.039 76.8378 159.194 103.686 132.856 110.483C106.517 117.28 79.6584 101.452 72.8657 75.1295C68.3471 57.6197 -10.1179 51.5017 1.82318 39.5833C8.81777 37.7783 99.4386 17.4372 108.257 15.1616C134.595 8.36465 161.454 24.1931 168.247 50.5154Z" fill="white"/>
    <path d="M170.031 62.4393C170.031 89.624 147.979 111.662 120.778 111.662C93.5761 111.662 71.5249 89.624 71.5249 62.4393C71.5249 44.3559 27.1046 21.7734 41.645 13.2169C48.8688 13.2169 111.671 13.217 120.778 13.217C147.979 13.217 170.031 35.2546 170.031 62.4393Z" fill="#FFF9E6"/>
    <path d="M100.161 32.6437C106.98 27.5977 115.313 25.0232 123.789 25.3438C132.266 25.6645 140.381 28.8613 146.798 34.4081C153.216 39.9549 157.554 47.5212 159.099 55.8619C160.644 64.2026 159.303 72.8208 155.298 80.2981C151.293 87.7754 144.861 93.6664 137.062 97.0017C129.262 100.337 120.56 100.918 112.386 98.6483C104.213 96.379 97.0556 91.3948 92.0921 84.516C87.1287 77.6372 84.6548 69.2736 85.0777 60.8016L122.377 62.6634L100.161 32.6437Z" fill="#FF9684"/>
    <path d="M100.161 32.6437C106.98 27.5977 115.313 25.0232 123.789 25.3438C132.266 25.6645 140.381 28.8613 146.798 34.4081C153.216 39.9549 157.554 47.5212 159.099 55.8619C160.644 64.2026 159.303 72.8208 155.298 80.2981C151.293 87.7754 144.861 93.6664 137.062 97.0017C129.262 100.337 120.56 100.918 112.386 98.6483C104.213 96.379 97.0556 91.3948 92.0921 84.516C87.1287 77.6372 84.6548 69.2736 85.0777 60.8016L96.2676 61.3601C95.9716 67.2906 97.7033 73.1451 101.178 77.9602C104.652 82.7754 109.662 86.2643 115.384 87.8528C121.105 89.4414 127.197 89.0348 132.656 86.7002C138.116 84.3655 142.618 80.2418 145.422 75.0077C148.226 69.7735 149.164 63.7408 148.083 57.9023C147.001 52.0638 143.964 46.7674 139.472 42.8847C134.98 39.0019 129.299 36.7642 123.366 36.5397C117.432 36.3152 111.599 38.1174 106.826 41.6496L100.161 32.6437Z" fill="#FF6347"/>
    <g filter="url(#filter0_d_4248_2245)">
        <path d="M64.7658 50.7042C65.0546 45.1811 66.5666 39.791 69.1924 34.9235C71.8182 30.0559 75.4924 25.8323 79.9495 22.5578L102.061 52.6546L64.7658 50.7042Z" fill="#FF9684"/>
        <path d="M64.7658 50.7042C65.0546 45.1811 66.5666 39.791 69.1924 34.9235C71.8182 30.0559 75.4924 25.8323 79.9495 22.5578L86.5829 31.5868C83.463 33.879 80.8911 36.8355 79.053 40.2428C77.2149 43.6501 76.1566 47.4231 75.9544 51.2893L64.7658 50.7042Z" fill="#FF6347"/>
    </g>
    <defs>
        <filter id="filter0_d_4248_2245" x="54.7659" y="18.5577" width="57.2952" height="50.0968" filterUnits="userSpaceOnUse" color-interpolation-filters="sRGB">
            <feFlood flood-opacity="0" result="BackgroundImageFix"/>
            <feColorMatrix in="SourceAlpha" type="matrix" values="0 0 0 0 0 0 0 0 0 0 0 0 0 0 0 0 0 0 127 0" result="hardAlpha"/>
            <feOffset dy="6"/>
            <feGaussianBlur stdDeviation="5"/>
            <feComposite in2="hardAlpha" operator="out"/>
            <feColorMatrix type="matrix" values="0 0 0 0 0 0 0 0 0 0 0 0 0 0 0 0 0 0 0.25 0"/>
            <feBlend mode="normal" in2="BackgroundImageFix" result="effect1_dropShadow_4248_2245"/>
            <feBlend mode="normal" in="SourceGraphic" in2="effect1_dropShadow_4248_2245" result="shape"/>
        </filter>
    </defs>
</svg>
