<svg width="61" height="60" viewBox="0 0 61 60" fill="none" xmlns="http://www.w3.org/2000/svg">    <rect x="0.5" width="60" height="60" rx="6" fill="#5865F2"/>    <path d="M41.4407 20.027C44.9762 25.2572 46.7222 31.1568 46.0695 37.9485C46.0667 37.9773 46.0519 38.0036 46.0284 38.021C43.3511 39.999 40.7571 41.1995 38.1996 41.9956C38.1797 42.0017 38.1584 42.0014 38.1386 41.9947C38.1189 41.988 38.1018 41.9752 38.0896 41.9582C37.4988 41.131 36.9619 40.2589 36.4915 39.3431C36.4645 39.2892 36.4892 39.2242 36.5448 39.2029C37.3974 38.8797 38.2082 38.4923 38.9881 38.0336C39.0495 37.9973 39.0534 37.9088 38.9967 37.8662C38.8311 37.7426 38.6672 37.6127 38.5103 37.4827C38.4809 37.4587 38.4414 37.454 38.4081 37.4701C33.3451 39.8227 27.7987 39.8227 22.6758 37.4701C22.6425 37.4552 22.603 37.4603 22.5744 37.4839C22.4179 37.6139 22.2536 37.7426 22.0896 37.8662C22.0329 37.9088 22.0376 37.9973 22.0994 38.0336C22.8793 38.4836 23.69 38.8797 24.5415 39.2045C24.5967 39.2258 24.6229 39.2892 24.5955 39.3431C24.1353 40.2601 23.5985 41.1322 22.9966 41.9594C22.9704 41.9929 22.9274 42.0082 22.8867 41.9956C20.3413 41.1995 17.7473 39.999 15.07 38.021C15.0477 38.0036 15.0317 37.9761 15.0293 37.9473C14.4838 32.0726 15.5955 26.1242 19.6537 20.0258C19.6635 20.0097 19.6784 19.9971 19.6956 19.9896C21.6924 19.0675 23.8317 18.3891 26.0676 18.0017C26.1083 17.9954 26.149 18.0143 26.1701 18.0505C26.4464 18.5426 26.7622 19.1738 26.9758 19.6896C29.3326 19.3273 31.7262 19.3273 34.1324 19.6896C34.346 19.1848 34.6508 18.5426 34.9259 18.0505C34.9357 18.0325 34.9509 18.0181 34.9693 18.0093C34.9877 18.0006 35.0084 17.9979 35.0285 18.0017C37.2655 18.3903 39.4048 19.0687 41.4 19.9896C41.4177 19.9971 41.4321 20.0097 41.4407 20.027ZM28.174 31.1969C28.1986 29.4602 26.9402 28.0231 25.3605 28.0231C23.7937 28.0231 22.5474 29.4476 22.5474 31.1969C22.5474 32.9459 23.8184 34.3704 25.3605 34.3704C26.9277 34.3704 28.174 32.9459 28.174 31.1969ZM38.5756 31.1969C38.6003 29.4602 37.3418 28.0231 35.7625 28.0231C34.1954 28.0231 32.9491 29.4476 32.9491 31.1969C32.9491 32.9459 34.22 34.3704 35.7625 34.3704C37.3418 34.3704 38.5756 32.9459 38.5756 31.1969Z" fill="white"/></svg>