<svg width="61" height="60" viewBox="0 0 61 60" fill="none" xmlns="http://www.w3.org/2000/svg">	<rect x="0.5" width="60" height="60" rx="6" fill="url(#paint0_radial_136_13223)"/>	<path fill-rule="evenodd" clip-rule="evenodd" d="M15.5 29.5617C15.5 21.1962 22.0567 15 30.5125 15C38.9683 15 45.525 21.2 45.525 29.5655C45.525 37.931 38.9683 44.1272 30.5125 44.1272C28.9925 44.1272 27.5363 43.9245 26.1664 43.5492C25.8999 43.4779 25.6147 43.4967 25.3632 43.6093L22.3832 44.9228C22.2033 45.0022 22.0065 45.0362 21.8104 45.0218C21.6142 45.0073 21.4245 44.9449 21.2581 44.84C21.0917 44.7351 20.9536 44.591 20.856 44.4202C20.7583 44.2495 20.7041 44.0574 20.6981 43.8607L20.6155 41.1886C20.608 40.8583 20.4579 40.5506 20.2139 40.3329C17.294 37.7208 15.5 33.9377 15.5 29.5617ZM25.9074 26.8258L21.4975 33.8214C21.0734 34.4932 21.8991 35.2476 22.5296 34.7672L27.266 31.1718C27.4219 31.0534 27.612 30.989 27.8077 30.9883C28.0034 30.9877 28.194 31.0507 28.3507 31.168L31.8599 33.7989C32.1088 33.9858 32.3937 34.1191 32.6967 34.1903C32.9997 34.2616 33.3142 34.2692 33.6204 34.2128C33.9265 34.1564 34.2176 34.0371 34.4753 33.8625C34.733 33.6879 34.9517 33.4618 35.1176 33.1984L39.5312 26.2065C39.9516 25.5347 39.1259 24.7766 38.4954 25.257L33.7589 28.8524C33.6031 28.9708 33.4129 29.0352 33.2172 29.0358C33.0215 29.0365 32.8309 28.9734 32.6743 28.8562L29.1651 26.2253C28.9162 26.0384 28.6313 25.9051 28.3282 25.8338C28.0252 25.7626 27.7107 25.7549 27.4046 25.8114C27.0985 25.8678 26.8074 25.9871 26.5497 26.1617C26.292 26.3363 26.0733 26.5624 25.9074 26.8258Z" fill="white"/>	<defs>		<radialGradient id="paint0_radial_136_13223" cx="0" cy="0" r="1" gradientUnits="userSpaceOnUse" gradientTransform="translate(10.55 59.9984) scale(66 65.9982)">			<stop stop-color="#0099FF"/>			<stop offset="0.6" stop-color="#A033FF"/>			<stop offset="0.9" stop-color="#FF5280"/>			<stop offset="1" stop-color="#FF7061"/>		</radialGradient>	</defs></svg>