<svg width="61" height="60" viewBox="0 0 61 60" fill="none" xmlns="http://www.w3.org/2000/svg">
    <rect x="0.5" width="60" height="60" rx="6" fill="#00AEF3"/>
    <path fill-rule="evenodd" clip-rule="evenodd" d="M46.2486 37.0369C46.2486 35.6463 45.918 34.3333 45.33 33.1667C45.5611 32.126 45.6813 31.0483 45.6813 29.9409C45.6813 21.6449 38.8606 14.9174 30.4433 14.9174C29.5566 14.9174 28.6869 14.9933 27.8378 15.1378C26.476 14.2915 24.8642 13.8008 23.1379 13.8008C18.2558 13.8008 14.2998 17.7006 14.2998 22.5153C14.2998 24.1226 14.7431 25.6263 15.5133 26.9225C15.3123 27.8965 15.2052 28.9076 15.2052 29.9409C15.2052 38.2406 22.0278 44.9663 30.4433 44.9663C31.3975 44.9663 32.3292 44.8792 33.2347 44.7144C34.4801 45.3737 35.9002 45.7496 37.4123 45.7496C42.2926 45.7496 46.2486 41.8479 46.2486 37.0369ZM39.3265 33.7704C39.3265 35.0074 38.9658 36.1351 38.2595 37.1221C37.5551 38.1073 36.5144 38.885 35.162 39.4369C33.8264 39.985 32.2259 40.2646 30.4019 40.2646C28.2135 40.2646 26.3783 39.885 24.945 39.135C23.9213 38.5906 23.0778 37.8536 22.4373 36.9388C21.7892 36.0203 21.4624 35.1074 21.4624 34.2241C21.4624 33.676 21.6765 33.1982 22.0973 32.8075C22.5143 32.4186 23.0497 32.2242 23.6883 32.2242C24.2105 32.2242 24.6633 32.3779 25.0296 32.6834C25.3808 32.9778 25.6814 33.413 25.9237 33.9704C26.1942 34.5815 26.4872 35.0963 26.7972 35.4981C27.0977 35.8907 27.5279 36.2185 28.0764 36.4759C28.6287 36.7314 29.3744 36.8647 30.2892 36.8647C31.5497 36.8647 32.5828 36.5981 33.3586 36.0759C34.1194 35.5666 34.4876 34.9518 34.4876 34.2C34.4876 33.6093 34.2941 33.1427 33.8996 32.776C33.4826 32.3945 32.936 32.0982 32.2729 31.8908C31.5797 31.6797 30.6405 31.4483 29.4777 31.2075C27.8942 30.8742 26.5511 30.4798 25.4841 30.0298C24.3909 29.5724 23.5099 28.9373 22.8656 28.1428C22.2119 27.3336 21.8794 26.3207 21.8794 25.13C21.8794 23.9967 22.2269 22.9727 22.9144 22.0912C23.5944 21.2153 24.59 20.5302 25.873 20.0654C27.1372 19.6043 28.6399 19.3709 30.3437 19.3709C31.7037 19.3709 32.9003 19.5265 33.8996 19.8339C34.9046 20.1413 35.7499 20.5561 36.4149 21.069C37.0855 21.5875 37.5852 22.1375 37.897 22.7116C38.2126 23.2912 38.3741 23.8671 38.3741 24.4245C38.3741 24.9615 38.1637 25.4503 37.7486 25.8744C37.3316 26.304 36.8037 26.5207 36.1838 26.5207C35.6203 26.5207 35.177 26.3836 34.8727 26.117C34.5871 25.867 34.2903 25.4781 33.9616 24.9226C33.5822 24.2115 33.1219 23.6504 32.5941 23.2541C32.0813 22.869 31.2266 22.6764 30.0488 22.6764C28.9593 22.6764 28.0689 22.8912 27.4096 23.3189C26.7746 23.7282 26.4647 24.2004 26.4647 24.7596C26.4647 25.1004 26.5643 25.3874 26.7709 25.6318C26.985 25.8948 27.2912 26.1207 27.6782 26.3133C28.0783 26.5114 28.4916 26.6707 28.9048 26.7818C29.3275 26.8984 30.0375 27.0707 31.0124 27.2929C32.2466 27.5521 33.3793 27.8466 34.3805 28.1632C35.3968 28.4817 36.2721 28.8743 36.9897 29.3354C37.7185 29.8039 38.2952 30.4039 38.7066 31.1224C39.118 31.8464 39.3265 32.7353 39.3265 33.7704Z" fill="white"/>
</svg>
