<svg width="61" height="60" viewBox="0 0 61 60" fill="none" xmlns="http://www.w3.org/2000/svg">    <rect x="0.5" width="60" height="60" rx="6" fill="#34AADF"/>    <path fill-rule="evenodd" clip-rule="evenodd" d="M47.0748 30.1883C47.0748 39.2388 39.7379 46.5758 30.6873 46.5758C21.6367 46.5758 14.2998 39.2388 14.2998 30.1883C14.2998 21.1377 21.6367 13.8008 30.6873 13.8008C39.7379 13.8008 47.0748 21.1377 47.0748 30.1883ZM32.2577 25.1598C29.4424 26.3759 21.3249 29.8294 21.3249 29.8294C19.4011 30.6076 20.5271 31.3372 20.5271 31.3372C20.5271 31.3372 22.1694 31.921 23.5771 32.3587C24.9848 32.7964 25.7355 32.3101 25.7355 32.3101C25.7355 32.3101 29.0201 30.0726 32.3515 27.6891C34.6976 26.0354 34.1346 27.3973 33.5715 27.981C32.3515 29.2457 30.3339 31.24 28.6447 32.8451C27.894 33.5261 28.2693 34.1098 28.5978 34.4016C29.553 35.2395 31.8029 36.7634 32.8244 37.4553C33.1075 37.647 33.2962 37.7748 33.3369 37.8065C33.5715 38.0011 34.8854 38.8766 35.683 38.682C36.4807 38.4875 36.5745 37.3687 36.5745 37.3687C36.5745 37.3687 37.1845 33.3802 37.7476 29.7321C37.8519 29.0158 37.9562 28.3146 38.0534 27.6607C38.3062 25.9611 38.5114 24.5815 38.5453 24.0897C38.6861 22.436 36.9968 23.1169 36.9968 23.1169C36.9968 23.1169 33.3369 24.6735 32.2577 25.1598Z" fill="white"/></svg>