<svg width="234" height="180" viewBox="0 0 234 180" fill="none" xmlns="http://www.w3.org/2000/svg">
    <path d="M217.731 65.5483C226.521 99.6125 206.016 134.358 171.931 143.154C137.845 151.95 103.087 131.466 94.2967 97.4018C88.4492 74.7421 -13.0938 66.8246 2.35941 51.4009C11.4112 49.0649 128.685 22.7412 140.097 19.7963C174.182 11.0002 208.94 31.4841 217.731 65.5483Z" fill="#FF826C"/>
    <path d="M220.04 80.9788C220.04 116.159 191.503 144.678 156.301 144.678C121.099 144.678 92.5622 116.159 92.5622 80.9788C92.5622 57.5767 35.0771 28.3524 53.8941 17.2793C63.2425 17.2793 144.516 17.2794 156.301 17.2794C191.503 17.2794 220.04 45.7986 220.04 80.9788Z" fill="#FF6347"/>
    <path d="M129.62 42.4209C138.444 35.8907 149.228 32.559 160.198 32.974C171.167 33.389 181.669 37.526 189.974 44.7042C198.279 51.8824 203.893 61.6741 205.893 72.468C207.892 83.2618 206.157 94.4147 200.973 104.091C195.79 113.768 187.467 121.391 177.373 125.708C167.28 130.024 156.018 130.775 145.441 127.839C134.863 124.902 125.601 118.452 119.178 109.55C112.754 100.648 109.553 89.8243 110.1 78.8605L158.37 81.2699L129.62 42.4209Z" fill="#FFD954"/>
    <path d="M129.62 42.4209C138.444 35.8907 149.228 32.559 160.198 32.974C171.167 33.389 181.669 37.526 189.974 44.7042C198.279 51.8824 203.893 61.6741 205.893 72.468C207.892 83.2618 206.157 94.4147 200.973 104.091C195.79 113.768 187.467 121.391 177.373 125.708C167.28 130.024 156.018 130.775 145.441 127.839C134.863 124.902 125.601 118.452 119.178 109.55C112.754 100.648 109.553 89.8243 110.1 78.8605L124.581 79.5833C124.198 87.258 126.439 94.8344 130.936 101.066C135.432 107.297 141.916 111.812 149.32 113.868C156.724 115.924 164.607 115.398 171.672 112.376C178.738 109.355 184.564 104.018 188.193 97.2448C191.821 90.4713 193.035 82.6642 191.636 75.1085C190.237 67.5528 186.307 60.6986 180.493 55.6739C174.679 50.6491 167.328 47.7533 159.649 47.4628C151.971 47.1723 144.422 49.5045 138.245 54.0756L129.62 42.4209Z" fill="#FFC700"/>
    <g filter="url(#filter0_d_4248_2153)">
        <path d="M83.815 65.7927C84.1888 58.6451 86.1454 51.6698 89.5435 45.3706C92.9416 39.0714 97.6964 33.6056 103.464 29.3679L132.079 68.3167L83.815 65.7927Z" fill="#FFD954"/>
        <path d="M83.815 65.7927C84.1888 58.6451 86.1454 51.6698 89.5435 45.3706C92.9416 39.0714 97.6964 33.6056 103.464 29.3679L112.049 41.0526C108.011 44.0189 104.683 47.845 102.304 52.2545C99.9256 56.6639 98.556 61.5466 98.2943 66.5499L83.815 65.7927Z" fill="#FFC700"/>
    </g>
    <defs>
        <filter id="filter0_d_4248_2153" x="73.8154" y="25.3672" width="68.2637" height="58.9492" filterUnits="userSpaceOnUse" color-interpolation-filters="sRGB">
            <feFlood flood-opacity="0" result="BackgroundImageFix"/>
            <feColorMatrix in="SourceAlpha" type="matrix" values="0 0 0 0 0 0 0 0 0 0 0 0 0 0 0 0 0 0 127 0" result="hardAlpha"/>
            <feOffset dy="6"/>
            <feGaussianBlur stdDeviation="5"/>
            <feComposite in2="hardAlpha" operator="out"/>
            <feColorMatrix type="matrix" values="0 0 0 0 0 0 0 0 0 0 0 0 0 0 0 0 0 0 0.25 0"/>
            <feBlend mode="normal" in2="BackgroundImageFix" result="effect1_dropShadow_4248_2153"/>
            <feBlend mode="normal" in="SourceGraphic" in2="effect1_dropShadow_4248_2153" result="shape"/>
        </filter>
    </defs>
</svg>
