<svg width="61" height="60" viewBox="0 0 61 60" fill="none" xmlns="http://www.w3.org/2000/svg">
    <rect x="0.5" width="60" height="60" rx="6" fill="#33CCFF"/>
    <path d="M45.3901 20.4332C44.3994 20.8595 43.3579 21.1564 42.2913 21.3165C42.7899 21.231 43.5237 20.3334 43.8157 19.9701C44.2595 19.4221 44.5976 18.7965 44.8131 18.1251C44.8131 18.0752 44.8629 18.004 44.8131 17.9684C44.7879 17.9546 44.7598 17.9475 44.7311 17.9475C44.7025 17.9475 44.6743 17.9546 44.6492 17.9684C43.491 18.5955 42.2584 19.0742 40.9805 19.3931C40.936 19.4067 40.8886 19.4079 40.8434 19.3966C40.7982 19.3853 40.757 19.362 40.7241 19.329C40.6246 19.2105 40.5175 19.0987 40.4035 18.9942C39.8823 18.5272 39.2909 18.145 38.6511 17.8615C37.7874 17.5072 36.8544 17.3537 35.9227 17.4127C35.0187 17.4698 34.136 17.7123 33.3297 18.1251C32.5357 18.5603 31.8378 19.1515 31.2781 19.8633C30.6893 20.5958 30.2642 21.446 30.0314 22.3565C29.8395 23.2227 29.8177 24.1179 29.9673 24.9923C29.9673 25.1419 29.9673 25.1633 29.8391 25.1419C24.7599 24.3939 20.5926 22.5916 17.1874 18.7235C17.0378 18.5525 16.9595 18.5525 16.8384 18.7235C15.3567 20.9746 16.0761 24.5364 17.9283 26.2959C18.1776 26.531 18.4341 26.759 18.7048 26.9727C17.8556 26.9124 17.0271 26.6823 16.2685 26.2959C16.126 26.2033 16.0477 26.2532 16.0405 26.4242C16.0203 26.6612 16.0203 26.8995 16.0405 27.1365C16.1892 28.2725 16.6368 29.3486 17.3377 30.2547C18.0387 31.1609 18.9677 31.8647 20.0298 32.2941C20.2887 32.405 20.5585 32.4885 20.8348 32.5434C20.0486 32.6982 19.2423 32.7223 18.4483 32.6146C18.2774 32.579 18.2132 32.6716 18.2774 32.8355C19.3245 35.685 21.597 36.554 23.2639 37.0385C23.4919 37.0741 23.7199 37.0741 23.9763 37.1311C23.9763 37.1311 23.9763 37.1311 23.9336 37.1738C23.442 38.0714 21.4545 38.6769 20.5427 38.9903C18.8784 39.5882 17.1039 39.8167 15.3424 39.66C15.0646 39.6172 15.0005 39.6243 14.9292 39.66C14.858 39.6956 14.9292 39.7739 15.0076 39.8452C15.3638 40.0803 15.72 40.2868 16.0904 40.4863C17.1932 41.0878 18.359 41.5656 19.5667 41.911C25.8213 43.635 32.8595 42.367 37.554 37.701C41.2441 34.0394 42.5406 28.9887 42.5406 23.9309C42.5406 23.7385 42.7757 23.6246 42.911 23.5248C43.8446 22.7974 44.6677 21.9384 45.3545 20.9746C45.4734 20.8309 45.5344 20.648 45.5254 20.4617C45.5254 20.3548 45.5254 20.3762 45.3901 20.4332Z" fill="white"/>
</svg>
