<svg width="61" height="60" viewBox="0 0 61 60" fill="none" xmlns="http://www.w3.org/2000/svg">
    <rect x="0.5" width="60" height="60" rx="6" fill="#00D95F"/>
    <path d="M15.5 43.8008L17.6524 35.8046C15.9165 32.6897 15.365 29.0549 16.0991 25.5671C16.8332 22.0794 18.8036 18.9726 21.6488 16.817C24.4939 14.6614 28.023 13.6015 31.5884 13.8317C35.1538 14.062 38.5164 15.5671 41.0591 18.0707C43.6018 20.5743 45.1541 23.9086 45.4311 27.4617C45.7081 31.0147 44.6912 34.5483 42.5671 37.4138C40.4429 40.2794 37.354 42.2849 33.8672 43.0621C30.3803 43.8394 26.7294 43.3364 23.5843 41.6454L15.5 43.8008ZM23.9741 38.6532L24.4741 38.949C26.7521 40.2958 29.4128 40.8531 32.0416 40.5341C34.6703 40.2151 37.1194 39.0377 39.0073 37.1854C40.8951 35.3331 42.1156 32.9099 42.4786 30.2934C42.8415 27.677 42.3266 25.0142 41.014 22.7202C39.7014 20.4261 37.6648 18.6296 35.2217 17.6106C32.7786 16.5916 30.0661 16.4073 27.507 17.0865C24.948 17.7656 22.686 19.2701 21.0736 21.3654C19.4613 23.4608 18.5891 26.0293 18.5931 28.6707C18.5909 30.8608 19.1982 33.0085 20.3472 34.8749L20.6608 35.3905L19.4574 39.8534L23.9741 38.6532Z" fill="white"/>
    <path fill-rule="evenodd" clip-rule="evenodd" d="M36.1089 30.7239C35.8158 30.4881 35.4726 30.3221 35.1055 30.2386C34.7383 30.1551 34.3569 30.1563 33.9903 30.2421C33.4395 30.4703 33.0836 31.3324 32.7277 31.7635C32.6526 31.8669 32.5424 31.9393 32.4175 31.9674C32.2927 31.9954 32.162 31.977 32.0498 31.9157C30.0332 31.1279 28.3429 29.6831 27.2534 27.8162C27.1605 27.6997 27.1165 27.5517 27.1307 27.4035C27.1449 27.2553 27.2163 27.1184 27.3297 27.0216C27.7266 26.6297 28.0181 26.1442 28.1771 25.61C28.2124 25.0209 28.0771 24.4341 27.7873 23.9195C27.5632 23.1982 27.1368 22.5558 26.5585 22.0684C26.2602 21.9346 25.9295 21.8897 25.6062 21.9392C25.2829 21.9887 24.9809 22.1305 24.7366 22.3474C24.3124 22.7124 23.9757 23.1676 23.7514 23.6796C23.527 24.1916 23.4206 24.7473 23.44 25.3058C23.4413 25.6194 23.4812 25.9316 23.5587 26.2355C23.7554 26.9658 24.0581 27.6634 24.4569 28.3064C24.7447 28.799 25.0587 29.2758 25.3976 29.7349C26.4988 31.2428 27.8831 32.5231 29.4736 33.5048C30.2718 34.0036 31.1248 34.4092 32.0159 34.7135C32.9415 35.132 33.9635 35.2927 34.9733 35.1784C35.5487 35.0915 36.0938 34.8649 36.5608 34.5185C37.0277 34.1722 37.4022 33.7166 37.6512 33.192C37.7975 32.8751 37.8419 32.5208 37.7783 32.1777C37.6257 31.4761 36.6851 31.062 36.1089 30.7239Z" fill="white"/>
</svg>
