<svg width="18" height="14" viewBox="0 0 18 14" fill="none" xmlns="http://www.w3.org/2000/svg">
    <path d="M10.6667 0.333008H7.33341C4.19072 0.333008 2.61937 0.333008 1.64306 1.30932C0.940108 2.01227 0.743287 3.02369 0.688178 4.70801H17.312C17.2569 3.02369 17.0601 2.01227 16.3571 1.30932C15.3808 0.333008 13.8094 0.333008 10.6667 0.333008Z" fill="#13C296"/>
    <path d="M7.33341 13.6663H10.6667C13.8094 13.6663 15.3808 13.6663 16.3571 12.69C17.3334 11.7137 17.3334 10.1424 17.3334 6.99967C17.3334 6.6314 17.3334 6.2847 17.3318 5.95801H0.668319C0.666748 6.2847 0.666748 6.6314 0.666748 6.99967C0.666748 10.1424 0.666748 11.7137 1.64306 12.69C2.61937 13.6663 4.19072 13.6663 7.33341 13.6663Z" fill="#13C296"/>
    <path fill-rule="evenodd" clip-rule="evenodd" d="M3.37508 10.333C3.37508 9.98783 3.6549 9.70801 4.00008 9.70801H7.33341C7.67859 9.70801 7.95841 9.98783 7.95841 10.333C7.95841 10.6782 7.67859 10.958 7.33341 10.958H4.00008C3.6549 10.958 3.37508 10.6782 3.37508 10.333Z" fill="white"/>
    <path fill-rule="evenodd" clip-rule="evenodd" d="M8.79175 10.333C8.79175 9.98783 9.07157 9.70801 9.41675 9.70801H10.6667C11.0119 9.70801 11.2917 9.98783 11.2917 10.333C11.2917 10.6782 11.0119 10.958 10.6667 10.958H9.41675C9.07157 10.958 8.79175 10.6782 8.79175 10.333Z" fill="white"/>
</svg>
