<svg width="18" height="18" viewBox="0 0 18 18" fill="none" xmlns="http://www.w3.org/2000/svg">
    <path fill-rule="evenodd" clip-rule="evenodd" d="M17.3334 9.00033C17.3334 13.6027 13.6025 17.3337 9.00008 17.3337C4.39771 17.3337 0.666748 13.6027 0.666748 9.00033C0.666748 4.39795 4.39771 0.666992 9.00008 0.666992C13.6025 0.666992 17.3334 4.39795 17.3334 9.00033ZM11.5001 6.50033C11.5001 7.88104 10.3808 9.00033 9.00008 9.00033C7.61937 9.00033 6.50008 7.88104 6.50008 6.50033C6.50008 5.11961 7.61937 4.00033 9.00008 4.00033C10.3808 4.00033 11.5001 5.11961 11.5001 6.50033ZM9.00007 16.0837C10.4868 16.0837 11.8665 15.6256 13.0058 14.843C13.5091 14.4973 13.7241 13.8389 13.4316 13.303C12.825 12.1922 11.5753 11.5003 9.00003 11.5003C6.42482 11.5003 5.17505 12.1922 4.56853 13.303C4.27595 13.8388 4.491 14.4973 4.99421 14.8429C6.13357 15.6256 7.51333 16.0837 9.00007 16.0837Z" fill="#13C296"/>
</svg>
