<svg width="22" height="24" viewBox="0 0 22 24" fill="none" xmlns="http://www.w3.org/2000/svg">
    <path d="M14.2503 11.4167C14.8486 11.4167 15.3336 10.9317 15.3336 10.3334C15.3336 9.73511 14.8486 9.25008 14.2503 9.25008C13.652 9.25008 13.1669 9.73511 13.1669 10.3334C13.1669 10.9317 13.652 11.4167 14.2503 11.4167Z" fill="#BABDC1"/>
    <path d="M8.83362 10.3334C8.83362 10.9317 8.34859 11.4167 7.75028 11.4167C7.15197 11.4167 6.66695 10.9317 6.66695 10.3334C6.66695 9.73511 7.15197 9.25008 7.75028 9.25008C8.34859 9.25008 8.83362 9.73511 8.83362 10.3334Z" fill="#BABDC1"/>
    <path fill-rule="evenodd" clip-rule="evenodd" d="M6.93778 5.21539V4.91675C6.93778 2.67309 8.75663 0.854248 11.0003 0.854248C13.2439 0.854248 15.0628 2.67309 15.0628 4.91675V5.21539C15.7761 5.23747 16.4113 5.27707 16.9748 5.34811C18.2762 5.51216 19.3296 5.8573 20.1433 6.65203C20.4148 6.91719 20.6561 7.21157 20.8629 7.5298C21.4826 8.48359 21.6144 9.5842 21.5201 10.8925C21.4277 12.1728 21.1062 13.7803 20.6982 15.8203L20.6775 15.9238C20.3944 17.3397 20.169 18.4664 19.8902 19.3528C19.603 20.2658 19.2363 21.004 18.6228 21.6019C18.4118 21.8075 18.1835 21.9947 17.9404 22.1613C17.2338 22.6456 16.438 22.8605 15.4865 22.963C14.5626 23.0626 13.4136 23.0626 11.9697 23.0626H10.031C8.58715 23.0626 7.43808 23.0626 6.51424 22.963C5.56269 22.8605 4.76694 22.6456 4.06028 22.1613C3.81724 21.9947 3.58896 21.8075 3.37794 21.6019C2.76442 21.004 2.39769 20.2658 2.1105 19.3528C1.83168 18.4665 1.60634 17.3397 1.32319 15.9239L1.30252 15.8205C0.894493 13.7805 0.572964 12.1729 0.480617 10.8925C0.386262 9.5842 0.518116 8.48359 1.13782 7.5298C1.34459 7.21157 1.58592 6.91719 1.85742 6.65203C2.67115 5.8573 3.72453 5.51216 5.0259 5.34811C5.58942 5.27708 6.22454 5.23747 6.93778 5.21539ZM8.56278 4.91675C8.56278 3.57055 9.65409 2.47925 11.0003 2.47925C12.3465 2.47925 13.4378 3.57055 13.4378 4.91675V5.18996C12.9782 5.18757 12.4931 5.18758 11.9813 5.18758H10.0195C9.50757 5.18758 9.02239 5.18757 8.56278 5.18996V4.91675ZM2.99282 7.81457C3.4418 7.37608 4.08479 7.10461 5.22913 6.96035C6.38927 6.81411 7.92611 6.81258 10.0779 6.81258H11.9228C14.0746 6.81258 15.6114 6.81411 16.7716 6.96035C17.9159 7.10461 18.5589 7.37608 19.0079 7.81457C19.1937 7.996 19.3588 8.19742 19.5002 8.41515C19.8422 8.94141 19.9823 9.62515 19.8993 10.7756C19.8152 11.9419 19.5153 13.4492 19.0933 15.5592C18.7988 17.0314 18.5896 18.0721 18.3401 18.8652C18.0959 19.6413 17.8365 20.0991 17.4886 20.4382C17.3442 20.5789 17.188 20.7069 17.0217 20.8209C16.621 21.0956 16.1213 21.2602 15.3123 21.3474C14.4857 21.4365 13.4241 21.4376 11.9228 21.4376H10.0779C8.57656 21.4376 7.51504 21.4365 6.68838 21.3474C5.87945 21.2602 5.3797 21.0956 4.97899 20.8209C4.81269 20.7069 4.6565 20.5789 4.51212 20.4382C4.16422 20.0991 3.90476 19.6413 3.66062 18.8652C3.41113 18.0721 3.20187 17.0314 2.90743 15.5592C2.48543 13.4492 2.18552 11.9419 2.10141 10.7756C2.01844 9.62515 2.15853 8.94141 2.50046 8.41515C2.64193 8.19742 2.80705 7.996 2.99282 7.81457Z" fill="#BABDC1"/>
</svg>
