<svg width="12" height="12" viewBox="0 0 12 12" fill="none" xmlns="http://www.w3.org/2000/svg">
    <path d="M4.33943 2.15472C5.07831 0.829244 5.44774 0.166504 6.00008 0.166504C6.55242 0.166504 6.92186 0.829243 7.66074 2.15472L7.85189 2.49764C8.06186 2.8743 8.16684 3.06263 8.33053 3.18689C8.49422 3.31115 8.69808 3.35728 9.10581 3.44953L9.47702 3.53352C10.9118 3.85816 11.6292 4.02048 11.7999 4.56935C11.9706 5.11821 11.4815 5.69013 10.5034 6.83396L10.2503 7.12988C9.97233 7.45492 9.83335 7.61744 9.77083 7.8185C9.7083 8.01956 9.72932 8.2364 9.77134 8.67008L9.8096 9.0649C9.95749 10.591 10.0314 11.3541 9.58458 11.6933C9.13773 12.0325 8.46602 11.7232 7.12261 11.1047L6.77505 10.9447C6.39329 10.7689 6.20241 10.681 6.00008 10.681C5.79775 10.681 5.60687 10.7689 5.22512 10.9447L4.87756 11.1047C3.53414 11.7232 2.86243 12.0325 2.41558 11.6933C1.96874 11.3541 2.04268 10.591 2.19056 9.0649L2.22882 8.67008C2.27085 8.2364 2.29186 8.01956 2.22933 7.8185C2.16681 7.61744 2.02783 7.45492 1.74987 7.12988L1.4968 6.83396C0.518643 5.69013 0.0295624 5.11821 0.200244 4.56935C0.370925 4.02048 1.08833 3.85816 2.52314 3.53352L2.89435 3.44953C3.30208 3.35728 3.50594 3.31115 3.66963 3.18689C3.83332 3.06263 3.9383 2.8743 4.14827 2.49764L4.33943 2.15472Z" fill="#FFC700"/>
</svg>
