<svg width="13" height="12" viewBox="0 0 13 12" fill="none" xmlns="http://www.w3.org/2000/svg">
    <path d="M4.83918 2.15472C5.57806 0.829244 5.9475 0.166504 6.49984 0.166504C7.05217 0.166504 7.42161 0.829243 8.16049 2.15472L8.35165 2.49764C8.56161 2.8743 8.6666 3.06263 8.83029 3.18689C8.99398 3.31115 9.19784 3.35728 9.60557 3.44953L9.97677 3.53352C11.4116 3.85816 12.129 4.02048 12.2997 4.56935C12.4704 5.11821 11.9813 5.69013 11.0031 6.83396L10.7501 7.12988C10.4721 7.45492 10.3331 7.61744 10.2706 7.8185C10.2081 8.01956 10.2291 8.2364 10.2711 8.67008L10.3094 9.0649C10.4572 10.591 10.5312 11.3541 10.0843 11.6933C9.63748 12.0325 8.96578 11.7232 7.62236 11.1047L7.2748 10.9447C6.89305 10.7689 6.70217 10.681 6.49984 10.681C6.29751 10.681 6.10663 10.7689 5.72487 10.9447L5.37731 11.1047C4.0339 11.7232 3.36219 12.0325 2.91534 11.6933C2.46849 11.3541 2.54243 10.591 2.69032 9.0649L2.72858 8.67008C2.7706 8.2364 2.79161 8.01956 2.72909 7.8185C2.66657 7.61744 2.52759 7.45492 2.24962 7.12988L1.99656 6.83396C1.0184 5.69013 0.529318 5.11821 0.699999 4.56935C0.870681 4.02048 1.58809 3.85816 3.0229 3.53352L3.3941 3.44953C3.80183 3.35728 4.0057 3.31115 4.16939 3.18689C4.33308 3.06263 4.43806 2.8743 4.64803 2.49764L4.83918 2.15472Z" fill="white"/>
</svg>
