<svg width="20" height="21" viewBox="0 0 20 21" fill="none" xmlns="http://www.w3.org/2000/svg">
    <path fill-rule="evenodd" clip-rule="evenodd" d="M6.24902 5.50151L6.24902 4.5C6.24902 2.42893 7.92796 0.75 9.99902 0.75C12.0701 0.75 13.749 2.42893 13.749 4.5V5.5L13.749 5.50151C16.4334 5.5136 17.8596 5.6222 18.6596 6.59803C19.5598 7.69607 19.2277 9.35628 18.5637 12.6767L17.9637 15.6767C17.5019 17.9856 17.271 19.1401 16.4416 19.82C15.6121 20.5 14.4348 20.5 12.0802 20.5H7.91783C5.5632 20.5 4.38588 20.5 3.55645 19.82C2.72701 19.1401 2.49612 17.9856 2.03434 15.6767L1.43434 12.6767C0.770258 9.35628 0.438216 7.69607 1.33839 6.59803C2.13839 5.62219 3.56465 5.5136 6.24902 5.50151ZM7.74902 4.5C7.74902 3.25736 8.75638 2.25 9.99902 2.25C11.2417 2.25 12.249 3.25736 12.249 4.5V5.5H7.74902V4.5ZM12.999 9.5C13.5513 9.5 13.999 9.05228 13.999 8.5C13.999 7.94772 13.5513 7.5 12.999 7.5C12.4467 7.5 11.999 7.94772 11.999 8.5C11.999 9.05228 12.4467 9.5 12.999 9.5ZM7.999 8.5C7.999 9.05228 7.55129 9.5 6.999 9.5C6.44672 9.5 5.999 9.05228 5.999 8.5C5.999 7.94772 6.44672 7.5 6.999 7.5C7.55129 7.5 7.999 7.94772 7.999 8.5Z" fill="white"/>
</svg>
