<svg width="18" height="15" viewBox="0 0 18 15" fill="none" xmlns="http://www.w3.org/2000/svg">
    <path fill-rule="evenodd" clip-rule="evenodd" d="M4.21827 2.31832C2.97403 2.88707 2.0625 4.23985 2.0625 5.853C2.0625 7.50105 2.73691 8.77135 3.70371 9.86001C4.50054 10.7573 5.46513 11.5009 6.40584 12.2261C6.62928 12.3984 6.85136 12.5696 7.06953 12.7416C7.46406 13.0526 7.81599 13.3256 8.15521 13.5238C8.49461 13.7221 8.7678 13.8127 9 13.8127C9.2322 13.8127 9.50539 13.7221 9.84479 13.5238C10.184 13.3256 10.5359 13.0526 10.9305 12.7416C11.1486 12.5696 11.3707 12.3984 11.5942 12.2261C12.5349 11.5009 13.4995 10.7573 14.2963 9.86001C15.2631 8.77135 15.9375 7.50105 15.9375 5.853C15.9375 4.23985 15.026 2.88707 13.7817 2.31832C12.5729 1.76578 10.9488 1.91211 9.40527 3.51573C9.29923 3.6259 9.15291 3.68815 9 3.68815C8.84709 3.68815 8.70077 3.6259 8.59473 3.51573C7.05125 1.91211 5.42705 1.76578 4.21827 2.31832ZM9 2.34429C7.26596 0.792859 5.32422 0.57583 3.75057 1.29515C2.08853 2.05487 0.9375 3.81895 0.9375 5.853C0.9375 7.85215 1.77037 9.37722 2.86254 10.607C3.73715 11.5919 4.80767 12.4161 5.75312 13.1441C5.96744 13.3091 6.17533 13.4692 6.37306 13.6251C6.75724 13.9279 7.16966 14.2509 7.58762 14.4951C8.00539 14.7392 8.4822 14.9377 9 14.9377C9.5178 14.9377 9.99461 14.7392 10.4124 14.4951C10.8303 14.2509 11.2428 13.9279 11.6269 13.6251C11.8247 13.4692 12.0326 13.3091 12.2469 13.1441C13.1923 12.4161 14.2628 11.5919 15.1375 10.607C16.2296 9.37722 17.0625 7.85215 17.0625 5.853C17.0625 3.81895 15.9115 2.05487 14.2494 1.29515C12.6758 0.57583 10.734 0.792859 9 2.34429Z" fill="#FF6347"/>
</svg>
