<svg width="50" height="50" viewBox="0 0 50 50" fill="none" xmlns="http://www.w3.org/2000/svg">
    <path d="M17.8829 8.52094C21.0495 2.84031 22.6328 0 25 0C27.3672 0 28.9505 2.84031 32.1171 8.52094L32.9363 9.99058C33.8362 11.6048 34.2861 12.412 34.9876 12.9445C35.6892 13.4771 36.5629 13.6748 38.3103 14.0701L39.9012 14.4301C46.0504 15.8214 49.125 16.517 49.8564 18.8693C50.5879 21.2216 48.4919 23.6727 44.2998 28.5748L43.2152 29.8431C42.0239 31.2361 41.4283 31.9326 41.1603 32.7943C40.8924 33.656 40.9824 34.5853 41.1625 36.4439L41.3265 38.136C41.9603 44.6765 42.2772 47.9468 40.3621 49.4005C38.4471 50.8543 35.5683 49.5289 29.8108 46.8779L28.3213 46.1921C26.6852 45.4388 25.8671 45.0621 25 45.0621C24.1329 45.0621 23.3148 45.4388 21.6787 46.1921L20.1892 46.8779C14.4317 49.5289 11.5529 50.8543 9.63787 49.4005C7.7228 47.9468 8.0397 44.6765 8.67349 38.136L8.83746 36.4439C9.01756 34.5853 9.10762 33.656 8.83966 32.7943C8.5717 31.9326 7.97606 31.2361 6.7848 29.8431L5.70024 28.5748C1.50812 23.6727 -0.587939 21.2216 0.143552 18.8693C0.875044 16.517 3.94964 15.8214 10.0988 14.4301L11.6897 14.0701C13.4371 13.6748 14.3108 13.4771 15.0124 12.9445C15.7139 12.412 16.1638 11.6048 17.0637 9.99059L17.8829 8.52094Z" fill="#E9EAEB"/>
</svg>
