<svg width="12" height="12" viewBox="0 0 12 12" fill="none" xmlns="http://www.w3.org/2000/svg">
    <path d="M4.33918 2.15472C5.07806 0.829244 5.4475 0.166504 5.99984 0.166504C6.55217 0.166504 6.92161 0.829243 7.66049 2.15472L7.85165 2.49764C8.06161 2.8743 8.1666 3.06263 8.33029 3.18689C8.49398 3.31115 8.69784 3.35728 9.10557 3.44953L9.47677 3.53352C10.9116 3.85816 11.629 4.02048 11.7997 4.56935C11.9704 5.11821 11.4813 5.69013 10.5031 6.83396L10.2501 7.12988C9.97209 7.45492 9.83311 7.61744 9.77058 7.8185C9.70806 8.01956 9.72907 8.2364 9.7711 8.67008L9.80936 9.0649C9.95724 10.591 10.0312 11.3541 9.58433 11.6933C9.13748 12.0325 8.46578 11.7232 7.12236 11.1047L6.7748 10.9447C6.39305 10.7689 6.20217 10.681 5.99984 10.681C5.79751 10.681 5.60663 10.7689 5.22487 10.9447L4.87731 11.1047C3.5339 11.7232 2.86219 12.0325 2.41534 11.6933C1.96849 11.3541 2.04243 10.591 2.19032 9.0649L2.22858 8.67008C2.2706 8.2364 2.29161 8.01956 2.22909 7.8185C2.16657 7.61744 2.02759 7.45492 1.74962 7.12988L1.49656 6.83396C0.518399 5.69013 0.0293182 5.11821 0.199999 4.56935C0.370681 4.02048 1.08809 3.85816 2.5229 3.53352L2.8941 3.44953C3.30183 3.35728 3.5057 3.31115 3.66939 3.18689C3.83308 3.06263 3.93806 2.8743 4.14803 2.49764L4.33918 2.15472Z" fill="#BABDC1"/>
</svg>
